<svg width="1253" height="462" viewBox="0 0 1253 462" fill="none" xmlns="http://www.w3.org/2000/svg">
<path fill-rule="evenodd" clip-rule="evenodd" d="M321.694 351.409V436.694C322.103 450.564 315.376 457.295 301.514 456.886H247.598C233.736 457.295 227.01 450.564 227.418 436.694V20.2071C227.01 6.35763 233.736 -0.37277 247.598 0.015916H301.514C315.376 -0.37277 322.103 6.35763 321.694 20.2071V254.36L378.922 163.346C385.137 153.097 394.174 148.085 406.033 148.269H470.499C479.127 148.269 483.441 151.788 483.441 158.804C483.441 160.809 482.439 163.325 480.435 166.333L395.79 301.943L482.234 438.761C484.238 441.972 485.24 444.489 485.24 446.289C485.24 453.326 480.926 456.845 472.298 456.845H405.44C394.195 457.029 386.057 453.428 381.048 446.003L321.694 351.409ZM13.1057 377.921L56.1646 355.009C59.5995 353.209 62.3597 352.309 64.4247 352.309C68.1049 352.309 71.6625 354.007 75.0974 357.423C84.2776 366.465 92.783 370.986 100.573 370.986C107.913 370.986 111.593 367.467 111.593 360.43C111.593 349.588 98.8554 338.827 73.3595 328.19C52.0141 319.148 35.821 309.512 24.8007 299.263C8.2601 284.002 0 263.913 0 238.997C0 209.456 9.97753 186.053 29.9531 168.788C49.4584 151.706 74.7294 143.175 105.725 143.175C138.561 143.175 165.877 156.329 187.692 182.657C198.938 195.914 204.56 206.163 204.56 213.405C204.56 219.439 199.858 224.656 190.432 229.075L152.894 246.566C148.293 248.775 144.511 249.88 141.526 249.88C135.781 249.88 130.628 246.873 126.028 240.838C122.123 235.805 117.195 233.309 111.225 233.309C104.335 233.309 100.9 236.317 100.9 242.351C100.9 249.982 111.45 258.533 132.591 267.964C185.852 291.469 212.493 324.323 212.493 366.506C212.493 393.837 202.045 416.626 181.15 434.915C160.704 452.794 135.924 461.734 106.768 461.734C71.1718 461.734 40.6462 447.762 15.1503 419.838C5.0501 408.791 0 400.158 0 393.919C0.0204458 387.863 4.37539 382.544 13.1057 377.921ZM716.175 189.879C685.241 158.927 648.193 143.462 605.032 143.462C559.642 143.462 521.695 158.948 491.21 189.879C460.276 221.015 444.819 258.492 444.819 302.291C444.819 346.703 460.378 384.467 491.497 415.603C522.431 446.35 559.867 461.714 603.846 461.714C647.621 461.714 684.955 446.35 715.889 415.603C747.008 384.447 762.567 346.581 762.567 301.984C762.567 258.185 747.089 220.81 716.175 189.879ZM557.72 256.774C570.376 244.111 585.527 237.789 603.212 237.789C621.491 237.789 636.846 244.111 649.277 256.774C661.933 269.437 668.25 284.616 668.25 302.291C668.25 320.171 661.933 335.432 649.277 348.095C636.825 360.553 621.675 366.772 603.805 366.772C585.731 366.772 570.376 360.553 557.72 348.095C545.269 335.432 539.053 320.068 539.053 301.984C539.053 284.309 545.269 269.232 557.72 256.774ZM850.504 158.825C865.961 148.78 886.55 143.666 912.25 143.462H940.854C954.716 143.073 961.443 149.701 961.034 163.346V218.192C961.443 232.062 954.716 238.792 940.854 238.383H912.25C899.206 238.383 888.349 242.699 879.721 251.353C872.095 258.779 868.271 267.821 868.271 278.479V436.695C868.68 450.564 861.954 457.295 848.091 456.886H794.176C780.314 457.295 773.587 450.564 773.996 436.695V167.274C773.587 153.404 780.314 146.694 794.176 147.082H836.049C844.881 146.878 849.707 150.806 850.504 158.825ZM1124.36 373.114C1091.03 373.114 1069.95 360.246 1061.12 334.531V334.511H1231.31C1243.55 334.511 1250.38 329.581 1251.79 319.741C1252.59 314.524 1253 307.385 1253 298.343C1253 258.758 1242.76 224.82 1222.27 196.487C1196.77 161.546 1161.03 144.055 1115.05 144.055C1071.48 144.055 1034.23 159.418 1003.32 190.165C972.382 220.912 956.925 258.185 956.925 301.984C956.925 346.376 972.484 384.161 1003.6 415.296C1034.72 446.432 1073.77 462 1120.76 462C1157.5 462 1190.62 453.469 1220.14 436.388C1227.77 431.969 1231.59 426.855 1231.59 421.024C1231.59 418.222 1230.59 414.499 1228.59 409.875L1212.62 371.007C1209 362.169 1203.68 357.75 1196.65 357.75C1194.42 357.75 1191.32 358.569 1187.31 360.164C1165.41 368.797 1144.43 373.114 1124.36 373.114ZM1111.43 233.862C1138.52 233.862 1154.1 243.722 1158.11 263.402H1061.73C1071.38 243.702 1087.94 233.862 1111.43 233.862Z" fill="#26E1CD"/>
</svg>
